<svg width="27" height="27" viewBox="0 0 27 27" fill="none" xmlns="http://www.w3.org/2000/svg">
<g clip-path="url(#clip0_8_3)">
<rect x="1" y="1" width="12" height="12" rx="1" fill="#FF641A"/>
<path d="M4.67898 10.6H3.75568L6.42614 3.32728H7.33523L10.0057 10.6H9.08239L6.90909 4.47785H6.85227L4.67898 10.6ZM5.01989 7.7591H8.74148V8.54035H5.01989V7.7591Z" fill="white"/>
</g>
<g clip-path="url(#clip1_8_3)">
<rect x="1" y="14" width="12" height="12" rx="1" fill="#6AA9FF"/>
<path d="M10.233 18.58H9.35227C9.30019 18.3267 9.20904 18.1041 9.07884 17.9124C8.95099 17.7206 8.79474 17.5596 8.61009 17.4294C8.42779 17.2968 8.22538 17.1974 8.00284 17.1311C7.7803 17.0648 7.5483 17.0317 7.30682 17.0317C6.86648 17.0317 6.46757 17.143 6.11009 17.3655C5.75497 17.588 5.47206 17.9159 5.26136 18.3492C5.05303 18.7824 4.94886 19.3139 4.94886 19.9436C4.94886 20.5734 5.05303 21.1048 5.26136 21.5381C5.47206 21.9713 5.75497 22.2992 6.11009 22.5217C6.46757 22.7443 6.86648 22.8556 7.30682 22.8556C7.5483 22.8556 7.7803 22.8224 8.00284 22.7561C8.22538 22.6898 8.42779 22.5916 8.61009 22.4614C8.79474 22.3288 8.95099 22.1666 9.07884 21.9749C9.20904 21.7807 9.30019 21.5582 9.35227 21.3073H10.233C10.1667 21.6789 10.0459 22.0116 9.87074 22.3051C9.69555 22.5987 9.47775 22.8485 9.21733 23.0544C8.95691 23.258 8.66454 23.4131 8.3402 23.5196C8.01823 23.6262 7.67377 23.6794 7.30682 23.6794C6.68655 23.6794 6.13494 23.5279 5.65199 23.2249C5.16903 22.9218 4.78906 22.491 4.51207 21.9323C4.23509 21.3735 4.09659 20.7107 4.09659 19.9436C4.09659 19.1766 4.23509 18.5137 4.51207 17.955C4.78906 17.3963 5.16903 16.9654 5.65199 16.6624C6.13494 16.3593 6.68655 16.2078 7.30682 16.2078C7.67377 16.2078 8.01823 16.2611 8.3402 16.3676C8.66454 16.4742 8.95691 16.6304 9.21733 16.8364C9.47775 17.04 9.69555 17.2886 9.87074 17.5821C10.0459 17.8733 10.1667 18.2059 10.233 18.58Z" fill="white"/>
</g>
<rect x="14" y="14" width="12" height="12" rx="1" fill="#97DE3D"/>
<path d="M17 20L19 22L24 17.5" stroke="white"/>
<g clip-path="url(#clip2_8_3)">
<rect x="14" y="1" width="12" height="12" rx="1" fill="#FED843"/>
<path d="M17.8807 10.6V3.32728H20.4233C20.9299 3.32728 21.3478 3.41487 21.6768 3.59006C22.0059 3.76288 22.2509 3.99608 22.4119 4.28964C22.5729 4.58083 22.6534 4.90398 22.6534 5.2591C22.6534 5.5716 22.5978 5.82965 22.4865 6.03324C22.3776 6.23684 22.2332 6.39783 22.0533 6.5162C21.8757 6.63457 21.6828 6.72217 21.4744 6.77898V6.85001C21.697 6.86421 21.9207 6.94234 22.1456 7.08438C22.3705 7.22643 22.5587 7.43002 22.7102 7.69518C22.8617 7.96033 22.9375 8.28467 22.9375 8.66819C22.9375 9.03277 22.8546 9.36066 22.6889 9.65185C22.5232 9.94305 22.2616 10.1739 21.9041 10.3443C21.5466 10.5148 21.0814 10.6 20.5085 10.6H17.8807ZM18.7614 9.81876H20.5085C21.0838 9.81876 21.4922 9.70749 21.7337 9.48495C21.9775 9.26004 22.0994 8.98779 22.0994 8.66819C22.0994 8.42198 22.0367 8.1947 21.9112 7.98637C21.7857 7.77567 21.607 7.60758 21.375 7.48211C21.143 7.35427 20.8684 7.29035 20.5511 7.29035H18.7614V9.81876ZM18.7614 6.5233H20.3949C20.66 6.5233 20.8991 6.47122 21.1122 6.36705C21.3277 6.26288 21.4981 6.1161 21.6236 5.92671C21.7514 5.73732 21.8153 5.51478 21.8153 5.2591C21.8153 4.93949 21.7041 4.66842 21.4815 4.44589C21.259 4.22098 20.9063 4.10853 20.4233 4.10853H18.7614V6.5233Z" fill="white"/>
</g>
<defs>
<clipPath id="clip0_8_3">
<rect x="1" y="1" width="12" height="12" rx="1" fill="white"/>
</clipPath>
<clipPath id="clip1_8_3">
<rect x="1" y="14" width="12" height="12" rx="1" fill="white"/>
</clipPath>
<clipPath id="clip2_8_3">
<rect x="14" y="1" width="12" height="12" rx="1" fill="white"/>
</clipPath>
</defs>
</svg>
