<svg width="48" height="48" viewBox="0 0 48 48" fill="none" xmlns="http://www.w3.org/2000/svg">
<g clip-path="url(#clip0_14_4)">
<rect x="2" y="2" width="21" height="21" rx="1" fill="#FF641A"/>
<path d="M12.44 8.272L8.21 18.568C8.162 18.712 8.078 18.826 7.958 18.91C7.838 18.994 7.712 19.036 7.58 19.036C7.352 19.036 7.184 18.976 7.076 18.856C6.968 18.736 6.914 18.592 6.914 18.424C6.902 18.34 6.914 18.25 6.95 18.154L11.612 6.814C11.672 6.646 11.762 6.526 11.882 6.454C12.014 6.37 12.158 6.334 12.314 6.346C12.47 6.346 12.608 6.388 12.728 6.472C12.86 6.556 12.95 6.67 12.998 6.814L17.642 18.046C17.678 18.142 17.696 18.238 17.696 18.334C17.696 18.55 17.624 18.724 17.48 18.856C17.336 18.976 17.174 19.036 16.994 19.036C16.85 19.036 16.718 18.994 16.598 18.91C16.478 18.826 16.388 18.706 16.328 18.55L12.044 8.254L12.44 8.272ZM9.11 15.634L9.722 14.23H15.068L15.338 15.634H9.11Z" fill="white"/>
</g>
<g clip-path="url(#clip1_14_4)">
<rect x="2" y="25" width="21" height="21" rx="1" fill="#6AA9FF"/>
<path d="M16.656 30.228C16.86 30.336 16.974 30.498 16.998 30.714C17.034 30.93 16.98 31.128 16.836 31.308C16.728 31.464 16.59 31.548 16.422 31.56C16.254 31.572 16.086 31.536 15.918 31.452C15.522 31.212 15.096 31.026 14.64 30.894C14.184 30.75 13.704 30.678 13.2 30.678C12.492 30.678 11.844 30.804 11.256 31.056C10.668 31.296 10.158 31.638 9.726 32.082C9.294 32.526 8.958 33.054 8.718 33.666C8.478 34.278 8.358 34.956 8.358 35.7C8.358 36.492 8.484 37.2 8.736 37.824C8.988 38.448 9.33 38.982 9.762 39.426C10.206 39.858 10.716 40.188 11.292 40.416C11.88 40.644 12.516 40.758 13.2 40.758C13.692 40.758 14.166 40.692 14.622 40.56C15.078 40.428 15.51 40.236 15.918 39.984C16.086 39.9 16.254 39.87 16.422 39.894C16.59 39.918 16.734 40.002 16.854 40.146C16.998 40.338 17.052 40.542 17.016 40.758C16.98 40.962 16.866 41.112 16.674 41.208C16.374 41.388 16.032 41.556 15.648 41.712C15.264 41.856 14.862 41.97 14.442 42.054C14.034 42.138 13.62 42.18 13.2 42.18C12.336 42.18 11.52 42.03 10.752 41.73C9.984 41.43 9.306 40.998 8.718 40.434C8.13 39.87 7.662 39.192 7.314 38.4C6.978 37.596 6.81 36.696 6.81 35.7C6.81 34.764 6.972 33.906 7.296 33.126C7.62 32.346 8.07 31.668 8.646 31.092C9.234 30.516 9.912 30.066 10.68 29.742C11.46 29.418 12.3 29.256 13.2 29.256C13.824 29.256 14.43 29.34 15.018 29.508C15.618 29.676 16.164 29.916 16.656 30.228Z" fill="white"/>
</g>
<rect x="25" y="25" width="21" height="21" rx="1" fill="#97DE3D"/>
<path d="M29 36L32.7143 40L42 31" stroke="white" stroke-width="1.5" stroke-linecap="round" stroke-linejoin="round"/>
<g clip-path="url(#clip2_14_4)">
<rect x="25" y="2" width="21" height="21" rx="1" fill="#FED843"/>
<path d="M36.002 6.4C37.058 6.4 37.868 6.676 38.432 7.228C39.008 7.768 39.296 8.536 39.296 9.532C39.296 10.06 39.176 10.546 38.936 10.99C38.696 11.434 38.342 11.788 37.874 12.052C37.418 12.316 36.854 12.46 36.182 12.484L36.146 11.98C36.566 11.98 36.998 12.04 37.442 12.16C37.886 12.28 38.294 12.472 38.666 12.736C39.05 13 39.356 13.348 39.584 13.78C39.824 14.212 39.944 14.746 39.944 15.382C39.944 16.066 39.83 16.642 39.602 17.11C39.374 17.566 39.068 17.938 38.684 18.226C38.312 18.502 37.892 18.7 37.424 18.82C36.968 18.94 36.506 19 36.038 19H31.304C31.1 19 30.926 18.928 30.782 18.784C30.65 18.64 30.584 18.466 30.584 18.262V7.12C30.584 6.916 30.65 6.748 30.782 6.616C30.926 6.472 31.1 6.4 31.304 6.4H36.002ZM35.786 7.822H31.916L32.132 7.498V11.98L31.934 11.746H35.822C36.35 11.746 36.8 11.578 37.172 11.242C37.556 10.894 37.748 10.384 37.748 9.712C37.748 9.112 37.574 8.65 37.226 8.326C36.878 7.99 36.398 7.822 35.786 7.822ZM35.93 13.186H32.006L32.132 13.06V17.758L31.988 17.596H35.984C36.692 17.596 37.268 17.416 37.712 17.056C38.168 16.696 38.396 16.138 38.396 15.382C38.396 14.794 38.276 14.344 38.036 14.032C37.796 13.708 37.484 13.486 37.1 13.366C36.728 13.246 36.338 13.186 35.93 13.186Z" fill="white"/>
</g>
<defs>
<clipPath id="clip0_14_4">
<rect x="2" y="2" width="21" height="21" rx="1" fill="white"/>
</clipPath>
<clipPath id="clip1_14_4">
<rect x="2" y="25" width="21" height="21" rx="1" fill="white"/>
</clipPath>
<clipPath id="clip2_14_4">
<rect x="25" y="2" width="21" height="21" rx="1" fill="white"/>
</clipPath>
</defs>
</svg>
