<svg width="36" height="36" viewBox="0 0 36 36" fill="none" xmlns="http://www.w3.org/2000/svg">
<g clip-path="url(#clip0_14_4)">
<rect x="1" y="1" width="16" height="16" rx="1" fill="#FF641A"/>
<path d="M7.1 4.64001L4.75 10.36C4.72334 10.44 4.67667 10.5033 4.61 10.55C4.54334 10.5967 4.47334 10.62 4.4 10.62C4.27334 10.62 4.18 10.5867 4.12 10.52C4.06 10.4533 4.03 10.3733 4.03 10.28C4.02334 10.2333 4.03 10.1833 4.05 10.13L6.64 3.83001C6.67334 3.73667 6.72334 3.67001 6.79 3.63001C6.86334 3.58334 6.94334 3.56334 7.03 3.57001C7.11667 3.57001 7.19334 3.59334 7.26 3.64001C7.33334 3.68667 7.38334 3.75001 7.41 3.83001L9.99 10.07C10.01 10.1233 10.02 10.1767 10.02 10.23C10.02 10.35 9.98 10.4467 9.9 10.52C9.82 10.5867 9.73 10.62 9.63 10.62C9.55 10.62 9.47667 10.5967 9.41 10.55C9.34334 10.5033 9.29334 10.4367 9.26 10.35L6.88 4.63001L7.1 4.64001ZM5.25 8.73001L5.59 7.95001H8.56L8.71 8.73001H5.25Z" fill="white"/>
</g>
<g clip-path="url(#clip1_14_4)">
<rect x="1" y="19" width="16" height="16" rx="1" fill="#6AA9FF"/>
<path d="M9.5 22.04C9.61334 22.1 9.67667 22.19 9.69 22.31C9.71 22.43 9.68 22.54 9.6 22.64C9.54 22.7267 9.46334 22.7733 9.37 22.78C9.27667 22.7867 9.18334 22.7667 9.09 22.72C8.87 22.5867 8.63334 22.4833 8.38 22.41C8.12667 22.33 7.86 22.29 7.58 22.29C7.18667 22.29 6.82667 22.36 6.5 22.5C6.17334 22.6333 5.89 22.8233 5.65 23.07C5.41 23.3167 5.22334 23.61 5.09 23.95C4.95667 24.29 4.89 24.6667 4.89 25.08C4.89 25.52 4.96 25.9133 5.1 26.26C5.24 26.6067 5.43 26.9033 5.67 27.15C5.91667 27.39 6.2 27.5733 6.52 27.7C6.84667 27.8267 7.2 27.89 7.58 27.89C7.85334 27.89 8.11667 27.8533 8.37 27.78C8.62334 27.7067 8.86334 27.6 9.09 27.46C9.18334 27.4133 9.27667 27.3967 9.37 27.41C9.46334 27.4233 9.54334 27.47 9.61 27.55C9.69 27.6567 9.72 27.77 9.7 27.89C9.68 28.0033 9.61667 28.0867 9.51 28.14C9.34334 28.24 9.15334 28.3333 8.94 28.42C8.72667 28.5 8.50334 28.5633 8.27 28.61C8.04334 28.6567 7.81334 28.68 7.58 28.68C7.1 28.68 6.64667 28.5967 6.22 28.43C5.79334 28.2633 5.41667 28.0233 5.09 27.71C4.76334 27.3967 4.50334 27.02 4.31 26.58C4.12334 26.1333 4.03 25.6333 4.03 25.08C4.03 24.56 4.12 24.0833 4.3 23.65C4.48 23.2167 4.73 22.84 5.05 22.52C5.37667 22.2 5.75334 21.95 6.18 21.77C6.61334 21.59 7.08 21.5 7.58 21.5C7.92667 21.5 8.26334 21.5467 8.59 21.64C8.92334 21.7333 9.22667 21.8667 9.5 22.04Z" fill="white"/>
</g>
<rect x="19" y="19" width="16" height="16" rx="1" fill="#97DE3D"/>
<path d="M21.8 25L23.8 27L28.8 22.5" stroke="white" stroke-linecap="round" stroke-linejoin="round"/>
<g clip-path="url(#clip2_14_4)">
<rect x="19" y="1" width="16" height="16" rx="1" fill="#FED843"/>
<path d="M25.69 3.60001C26.2767 3.60001 26.7267 3.75334 27.04 4.06001C27.36 4.36001 27.52 4.78667 27.52 5.34001C27.52 5.63334 27.4533 5.90334 27.32 6.15001C27.1867 6.39667 26.99 6.59334 26.73 6.74001C26.4767 6.88667 26.1633 6.96667 25.79 6.98001L25.77 6.70001C26.0033 6.70001 26.2433 6.73334 26.49 6.80001C26.7367 6.86667 26.9633 6.97334 27.17 7.12001C27.3833 7.26667 27.5533 7.46001 27.68 7.70001C27.8133 7.94001 27.88 8.23667 27.88 8.59001C27.88 8.97001 27.8167 9.29001 27.69 9.55001C27.5633 9.80334 27.3933 10.01 27.18 10.17C26.9733 10.3233 26.74 10.4333 26.48 10.5C26.2267 10.5667 25.97 10.6 25.71 10.6H23.08C22.9667 10.6 22.87 10.56 22.79 10.48C22.7167 10.4 22.68 10.3033 22.68 10.19V4.00001C22.68 3.88667 22.7167 3.79334 22.79 3.72001C22.87 3.64001 22.9667 3.60001 23.08 3.60001H25.69ZM25.57 4.39001H23.42L23.54 4.21001V6.70001L23.43 6.57001H25.59C25.8833 6.57001 26.1333 6.47667 26.34 6.29001C26.5533 6.09667 26.66 5.81334 26.66 5.44001C26.66 5.10667 26.5633 4.85001 26.37 4.67001C26.1767 4.48334 25.91 4.39001 25.57 4.39001ZM25.65 7.37001H23.47L23.54 7.30001V9.91001L23.46 9.82001H25.68C26.0733 9.82001 26.3933 9.72001 26.64 9.52001C26.8933 9.32001 27.02 9.01001 27.02 8.59001C27.02 8.26334 26.9533 8.01334 26.82 7.84001C26.6867 7.66001 26.5133 7.53667 26.3 7.47001C26.0933 7.40334 25.8767 7.37001 25.65 7.37001Z" fill="white"/>
</g>
<defs>
<clipPath id="clip0_14_4">
<rect x="1" y="1" width="16" height="16" rx="1" fill="white"/>
</clipPath>
<clipPath id="clip1_14_4">
<rect x="1" y="19" width="16" height="16" rx="1" fill="white"/>
</clipPath>
<clipPath id="clip2_14_4">
<rect x="19" y="1" width="16" height="16" rx="1" fill="white"/>
</clipPath>
</defs>
</svg>
