<svg width="49" height="46" viewBox="0 0 49 46" fill="none" xmlns="http://www.w3.org/2000/svg">
<g clip-path="url(#clip0_14_4)">
<rect x="1" y="1" width="20" height="20" rx="1" fill="#FF641A"/>
<path d="M7.1 4.64001L4.75 10.36C4.72334 10.44 4.67667 10.5033 4.61 10.55C4.54334 10.5967 4.47334 10.62 4.4 10.62C4.27334 10.62 4.18 10.5867 4.12 10.52C4.06 10.4533 4.03 10.3733 4.03 10.28C4.02334 10.2333 4.03 10.1833 4.05 10.13L6.64 3.83001C6.67334 3.73667 6.72334 3.67001 6.79 3.63001C6.86334 3.58334 6.94334 3.56334 7.03 3.57001C7.11667 3.57001 7.19334 3.59334 7.26 3.64001C7.33334 3.68667 7.38334 3.75001 7.41 3.83001L9.99 10.07C10.01 10.1233 10.02 10.1767 10.02 10.23C10.02 10.35 9.98 10.4467 9.9 10.52C9.82 10.5867 9.73 10.62 9.63 10.62C9.55 10.62 9.47667 10.5967 9.41 10.55C9.34334 10.5033 9.29334 10.4367 9.26 10.35L6.88 4.63001L7.1 4.64001ZM5.25 8.73001L5.59 7.95001H8.56L8.71 8.73001H5.25Z" fill="white"/>
</g>
<g clip-path="url(#clip1_14_4)">
<rect x="1" y="22" width="20" height="20" rx="1" fill="#6AA9FF"/>
<path d="M9.5 25.04C9.61334 25.1 9.67667 25.19 9.69 25.31C9.71 25.43 9.68 25.54 9.6 25.64C9.54 25.7267 9.46334 25.7733 9.37 25.78C9.27667 25.7867 9.18334 25.7667 9.09 25.72C8.87 25.5867 8.63334 25.4833 8.38 25.41C8.12667 25.33 7.86 25.29 7.58 25.29C7.18667 25.29 6.82667 25.36 6.5 25.5C6.17334 25.6333 5.89 25.8233 5.65 26.07C5.41 26.3167 5.22334 26.61 5.09 26.95C4.95667 27.29 4.89 27.6667 4.89 28.08C4.89 28.52 4.96 28.9133 5.1 29.26C5.24 29.6067 5.43 29.9033 5.67 30.15C5.91667 30.39 6.2 30.5733 6.52 30.7C6.84667 30.8267 7.2 30.89 7.58 30.89C7.85334 30.89 8.11667 30.8533 8.37 30.78C8.62334 30.7067 8.86334 30.6 9.09 30.46C9.18334 30.4133 9.27667 30.3967 9.37 30.41C9.46334 30.4233 9.54334 30.47 9.61 30.55C9.69 30.6567 9.72 30.77 9.7 30.89C9.68 31.0033 9.61667 31.0867 9.51 31.14C9.34334 31.24 9.15334 31.3333 8.94 31.42C8.72667 31.5 8.50334 31.5633 8.27 31.61C8.04334 31.6567 7.81334 31.68 7.58 31.68C7.1 31.68 6.64667 31.5967 6.22 31.43C5.79334 31.2633 5.41667 31.0233 5.09 30.71C4.76334 30.3967 4.50334 30.02 4.31 29.58C4.12334 29.1333 4.03 28.6333 4.03 28.08C4.03 27.56 4.12 27.0833 4.3 26.65C4.48 26.2167 4.73 25.84 5.05 25.52C5.37667 25.2 5.75334 24.95 6.18 24.77C6.61334 24.59 7.08 24.5 7.58 24.5C7.92667 24.5 8.26334 24.5467 8.59 24.64C8.92334 24.7333 9.22667 24.8667 9.5 25.04Z" fill="white"/>
</g>
<rect x="22" y="22" width="20" height="20" rx="1" fill="#97DE3D"/>
<path d="M24.8 28L26.8 30L31.8 25.5" stroke="white" stroke-linecap="round" stroke-linejoin="round"/>
<g clip-path="url(#clip2_14_4)">
<rect x="22" y="1" width="20" height="20" rx="1" fill="#FED843"/>
<path d="M28.69 3.60001C29.2767 3.60001 29.7267 3.75334 30.04 4.06001C30.36 4.36001 30.52 4.78667 30.52 5.34001C30.52 5.63334 30.4533 5.90334 30.32 6.15001C30.1867 6.39667 29.99 6.59334 29.73 6.74001C29.4767 6.88667 29.1633 6.96667 28.79 6.98001L28.77 6.70001C29.0033 6.70001 29.2433 6.73334 29.49 6.80001C29.7367 6.86667 29.9633 6.97334 30.17 7.12001C30.3833 7.26667 30.5533 7.46001 30.68 7.70001C30.8133 7.94001 30.88 8.23667 30.88 8.59001C30.88 8.97001 30.8167 9.29001 30.69 9.55001C30.5633 9.80334 30.3933 10.01 30.18 10.17C29.9733 10.3233 29.74 10.4333 29.48 10.5C29.2267 10.5667 28.97 10.6 28.71 10.6H26.08C25.9667 10.6 25.87 10.56 25.79 10.48C25.7167 10.4 25.68 10.3033 25.68 10.19V4.00001C25.68 3.88667 25.7167 3.79334 25.79 3.72001C25.87 3.64001 25.9667 3.60001 26.08 3.60001H28.69ZM28.57 4.39001H26.42L26.54 4.21001V6.70001L26.43 6.57001H28.59C28.8833 6.57001 29.1333 6.47667 29.34 6.29001C29.5533 6.09667 29.66 5.81334 29.66 5.44001C29.66 5.10667 29.5633 4.85001 29.37 4.67001C29.1767 4.48334 28.91 4.39001 28.57 4.39001ZM28.65 7.37001H26.47L26.54 7.30001V9.91001L26.46 9.82001H28.68C29.0733 9.82001 29.3933 9.72001 29.64 9.52001C29.8933 9.32001 30.02 9.01001 30.02 8.59001C30.02 8.26334 29.9533 8.01334 29.82 7.84001C29.6867 7.66001 29.5133 7.53667 29.3 7.47001C29.0933 7.40334 28.8767 7.37001 28.65 7.37001Z" fill="white"/>
</g>
<rect x="0.05" y="0.05" width="47.9909" height="45.9" stroke="black" stroke-width="0.1"/>
<defs>
<clipPath id="clip0_14_4">
<rect x="1" y="1" width="20" height="20" rx="1" fill="white"/>
</clipPath>
<clipPath id="clip1_14_4">
<rect x="1" y="22" width="20" height="20" rx="1" fill="white"/>
</clipPath>
<clipPath id="clip2_14_4">
<rect x="22" y="1" width="20" height="20" rx="1" fill="white"/>
</clipPath>
</defs>
</svg>
